<svg xmlns="http://www.w3.org/2000/svg" width="256" height="256" viewBox="0 0 100 100"><rect width="100" height="100" rx="50" fill="#000000"></rect><path fill="#52c895" d="M37.17 73.44L34.47 64.44L14.32 64.44Q13.32 67.78 12.20 71.38Q11.07 74.97 10.36 77.31L10.36 77.31Q9.46 77.67 8.42 77.94Q7.38 78.22 5.86 78.22L5.86 78.22Q2.79 78.22 1.08 77Q-0.63 75.78-0.63 73.53L-0.63 73.53Q-0.63 72.45-0.31 71.42Q0.00 70.38 0.46 69.03L0.46 69.03Q1.17 66.52 2.39 62.96Q3.60 59.41 5 55.22Q6.39 51.03 8.02 46.58Q9.63 42.13 11.12 37.94Q12.61 33.76 14 30.11Q15.39 26.46 16.38 23.85L16.38 23.85Q17.55 23.23 19.85 22.59Q22.14 21.96 24.48 21.96L24.48 21.96Q27.63 21.96 30.25 22.91Q32.86 23.85 33.58 25.92L33.58 25.92Q35.38 30.88 37.53 37.31Q39.69 43.74 41.90 50.58Q44.11 57.42 46.17 63.99Q48.25 70.56 49.86 75.78L49.86 75.78Q48.97 76.77 47.39 77.45Q45.81 78.13 43.66 78.13L43.66 78.13Q40.50 78.13 39.20 77Q37.89 75.88 37.17 73.44L37.17 73.44ZM24.84 32.23L24.39 32.23Q23.59 34.48 22.64 37.27Q21.70 40.05 20.66 43.07Q19.63 46.08 18.54 49.19Q17.46 52.30 16.47 55.27L16.47 55.27L32.14 55.27L24.84 32.23ZM100.27 29.70L100.27 29.70Q100.27 31.51 99.28 32.81Q98.28 34.12 97.03 34.84L97.03 34.84Q94.69 33.30 91.81 32.05Q88.93 30.78 84.69 30.78L84.69 30.78Q77.05 30.78 72.50 35.73Q67.95 40.69 67.95 50.05L67.95 50.05Q67.95 59.58 72.64 64.36Q77.31 69.13 85.23 69.13L85.23 69.13Q89.38 69.13 92.39 68Q95.41 66.88 97.75 65.34L97.75 65.34Q99.00 66.16 99.81 67.55Q100.63 68.94 100.63 70.75L100.63 70.75Q100.63 72.27 99.81 73.53Q99.00 74.80 97.12 75.78L97.12 75.78Q95.31 76.86 92.03 77.81Q88.75 78.75 83.89 78.75L83.89 78.75Q77.94 78.75 72.86 77Q67.78 75.25 64.00 71.69Q60.22 68.13 58.05 62.73Q55.90 57.33 55.90 50.05L55.90 50.05Q55.90 43.02 58.05 37.67Q60.22 32.31 63.95 28.67Q67.69 25.02 72.68 23.13Q77.67 21.24 83.25 21.24L83.25 21.24Q87.13 21.24 90.28 21.92Q93.43 22.59 95.67 23.77Q97.92 24.94 99.09 26.46Q100.27 27.99 100.27 29.70Z"></path></svg>